<svg width="196" height="158" viewBox="0 0 196 158" fill="none" xmlns="http://www.w3.org/2000/svg">
<ellipse cx="2.19252" cy="1.82641" rx="1.6305" ry="1.82641" fill="#EBEBEB"/>
<ellipse cx="12.2932" cy="1.82641" rx="1.6305" ry="1.82641" fill="#EBEBEB"/>
<ellipse cx="22.3939" cy="1.82641" rx="1.6305" ry="1.82641" fill="#EBEBEB"/>
<ellipse cx="32.4945" cy="1.82641" rx="1.6305" ry="1.82641" fill="#EBEBEB"/>
<ellipse cx="42.5952" cy="1.82641" rx="1.6305" ry="1.82641" fill="#EBEBEB"/>
<ellipse cx="52.6959" cy="1.82641" rx="1.6305" ry="1.82641" fill="#EBEBEB"/>
<ellipse cx="62.7966" cy="1.82641" rx="1.6305" ry="1.82641" fill="#EBEBEB"/>
<ellipse cx="72.8972" cy="1.82641" rx="1.6305" ry="1.82641" fill="#EBEBEB"/>
<ellipse cx="82.9981" cy="1.82641" rx="1.6305" ry="1.82641" fill="#EBEBEB"/>
<ellipse cx="93.0988" cy="1.82641" rx="1.6305" ry="1.82641" fill="#EBEBEB"/>
<ellipse cx="103.199" cy="1.82641" rx="1.6305" ry="1.82641" fill="#EBEBEB"/>
<ellipse cx="113.3" cy="1.82641" rx="1.6305" ry="1.82641" fill="#EBEBEB"/>
<ellipse cx="123.401" cy="1.82641" rx="1.6305" ry="1.82641" fill="#EBEBEB"/>
<ellipse cx="133.501" cy="1.82641" rx="1.6305" ry="1.82641" fill="#EBEBEB"/>
<ellipse cx="143.602" cy="1.82641" rx="1.6305" ry="1.82641" fill="#EBEBEB"/>
<ellipse cx="153.703" cy="1.82641" rx="1.6305" ry="1.82641" fill="#EBEBEB"/>
<ellipse cx="163.804" cy="1.82641" rx="1.6305" ry="1.82641" fill="#EBEBEB"/>
<ellipse cx="173.904" cy="1.82641" rx="1.6305" ry="1.82641" fill="#EBEBEB"/>
<ellipse cx="184.005" cy="1.82641" rx="1.6305" ry="1.82641" fill="#EBEBEB"/>
<ellipse cx="194.105" cy="1.82641" rx="1.6305" ry="1.82641" fill="#EBEBEB"/>
<ellipse cx="2.19252" cy="12.1121" rx="1.6305" ry="1.82641" fill="#EBEBEB"/>
<ellipse cx="12.2932" cy="12.1121" rx="1.6305" ry="1.82641" fill="#EBEBEB"/>
<ellipse cx="22.3939" cy="12.1121" rx="1.6305" ry="1.82641" fill="#EBEBEB"/>
<ellipse cx="32.4945" cy="12.1121" rx="1.6305" ry="1.82641" fill="#EBEBEB"/>
<ellipse cx="42.5952" cy="12.1121" rx="1.6305" ry="1.82641" fill="#EBEBEB"/>
<ellipse cx="52.6959" cy="12.1121" rx="1.6305" ry="1.82641" fill="#EBEBEB"/>
<ellipse cx="62.7966" cy="12.1121" rx="1.6305" ry="1.82641" fill="#EBEBEB"/>
<ellipse cx="72.8972" cy="12.1121" rx="1.6305" ry="1.82641" fill="#EBEBEB"/>
<ellipse cx="82.9981" cy="12.1121" rx="1.6305" ry="1.82641" fill="#EBEBEB"/>
<ellipse cx="93.0988" cy="12.1121" rx="1.6305" ry="1.82641" fill="#EBEBEB"/>
<ellipse cx="103.199" cy="12.1121" rx="1.6305" ry="1.82641" fill="#EBEBEB"/>
<ellipse cx="113.3" cy="12.1121" rx="1.6305" ry="1.82641" fill="#EBEBEB"/>
<ellipse cx="123.401" cy="12.1121" rx="1.6305" ry="1.82641" fill="#EBEBEB"/>
<ellipse cx="133.501" cy="12.1121" rx="1.6305" ry="1.82641" fill="#EBEBEB"/>
<ellipse cx="143.602" cy="12.1121" rx="1.6305" ry="1.82641" fill="#EBEBEB"/>
<ellipse cx="153.703" cy="12.1121" rx="1.6305" ry="1.82641" fill="#EBEBEB"/>
<ellipse cx="163.804" cy="12.1121" rx="1.6305" ry="1.82641" fill="#EBEBEB"/>
<ellipse cx="173.904" cy="12.1121" rx="1.6305" ry="1.82641" fill="#EBEBEB"/>
<ellipse cx="184.005" cy="12.1121" rx="1.6305" ry="1.82641" fill="#EBEBEB"/>
<ellipse cx="194.105" cy="12.1121" rx="1.6305" ry="1.82641" fill="#EBEBEB"/>
<ellipse cx="2.19252" cy="22.3979" rx="1.6305" ry="1.82641" fill="#EBEBEB"/>
<ellipse cx="12.2932" cy="22.3979" rx="1.6305" ry="1.82641" fill="#EBEBEB"/>
<ellipse cx="22.3939" cy="22.3979" rx="1.6305" ry="1.82641" fill="#EBEBEB"/>
<ellipse cx="32.4945" cy="22.3979" rx="1.6305" ry="1.82641" fill="#EBEBEB"/>
<ellipse cx="42.5952" cy="22.3979" rx="1.6305" ry="1.82641" fill="#EBEBEB"/>
<ellipse cx="52.6959" cy="22.3979" rx="1.6305" ry="1.82641" fill="#EBEBEB"/>
<ellipse cx="62.7966" cy="22.3979" rx="1.6305" ry="1.82641" fill="#EBEBEB"/>
<ellipse cx="72.8972" cy="22.3979" rx="1.6305" ry="1.82641" fill="#EBEBEB"/>
<ellipse cx="82.9981" cy="22.3979" rx="1.6305" ry="1.82641" fill="#EBEBEB"/>
<ellipse cx="93.0988" cy="22.3979" rx="1.6305" ry="1.82641" fill="#EBEBEB"/>
<ellipse cx="103.199" cy="22.3979" rx="1.6305" ry="1.82641" fill="#EBEBEB"/>
<ellipse cx="113.3" cy="22.3979" rx="1.6305" ry="1.82641" fill="#EBEBEB"/>
<ellipse cx="123.401" cy="22.3979" rx="1.6305" ry="1.82641" fill="#EBEBEB"/>
<ellipse cx="133.501" cy="22.3979" rx="1.6305" ry="1.82641" fill="#EBEBEB"/>
<ellipse cx="143.602" cy="22.3979" rx="1.6305" ry="1.82641" fill="#EBEBEB"/>
<ellipse cx="153.703" cy="22.3979" rx="1.6305" ry="1.82641" fill="#EBEBEB"/>
<ellipse cx="163.804" cy="22.3979" rx="1.6305" ry="1.82641" fill="#EBEBEB"/>
<ellipse cx="173.904" cy="22.3979" rx="1.6305" ry="1.82641" fill="#EBEBEB"/>
<ellipse cx="184.005" cy="22.3979" rx="1.6305" ry="1.82641" fill="#EBEBEB"/>
<ellipse cx="194.105" cy="22.3979" rx="1.6305" ry="1.82641" fill="#EBEBEB"/>
<ellipse cx="2.19252" cy="32.6836" rx="1.6305" ry="1.82641" fill="#EBEBEB"/>
<ellipse cx="12.2932" cy="32.6836" rx="1.6305" ry="1.82641" fill="#EBEBEB"/>
<ellipse cx="22.3939" cy="32.6836" rx="1.6305" ry="1.82641" fill="#EBEBEB"/>
<ellipse cx="32.4945" cy="32.6836" rx="1.6305" ry="1.82641" fill="#EBEBEB"/>
<ellipse cx="42.5952" cy="32.6836" rx="1.6305" ry="1.82641" fill="#EBEBEB"/>
<ellipse cx="52.6959" cy="32.6836" rx="1.6305" ry="1.82641" fill="#EBEBEB"/>
<ellipse cx="62.7966" cy="32.6836" rx="1.6305" ry="1.82641" fill="#EBEBEB"/>
<ellipse cx="72.8972" cy="32.6836" rx="1.6305" ry="1.82641" fill="#EBEBEB"/>
<ellipse cx="82.9981" cy="32.6836" rx="1.6305" ry="1.82641" fill="#EBEBEB"/>
<ellipse cx="93.0988" cy="32.6836" rx="1.6305" ry="1.82641" fill="#EBEBEB"/>
<ellipse cx="103.199" cy="32.6836" rx="1.6305" ry="1.82641" fill="#EBEBEB"/>
<ellipse cx="113.3" cy="32.6836" rx="1.6305" ry="1.82641" fill="#EBEBEB"/>
<ellipse cx="123.401" cy="32.6836" rx="1.6305" ry="1.82641" fill="#EBEBEB"/>
<ellipse cx="133.501" cy="32.6836" rx="1.6305" ry="1.82641" fill="#EBEBEB"/>
<ellipse cx="143.602" cy="32.6836" rx="1.6305" ry="1.82641" fill="#EBEBEB"/>
<ellipse cx="153.703" cy="32.6836" rx="1.6305" ry="1.82641" fill="#EBEBEB"/>
<ellipse cx="163.804" cy="32.6836" rx="1.6305" ry="1.82641" fill="#EBEBEB"/>
<ellipse cx="173.904" cy="32.6836" rx="1.6305" ry="1.82641" fill="#EBEBEB"/>
<ellipse cx="184.005" cy="32.6836" rx="1.6305" ry="1.82641" fill="#EBEBEB"/>
<ellipse cx="194.105" cy="32.6836" rx="1.6305" ry="1.82641" fill="#EBEBEB"/>
<ellipse cx="2.19252" cy="42.9692" rx="1.6305" ry="1.82641" fill="#EBEBEB"/>
<ellipse cx="12.2932" cy="42.9692" rx="1.6305" ry="1.82641" fill="#EBEBEB"/>
<ellipse cx="22.3939" cy="42.9692" rx="1.6305" ry="1.82641" fill="#EBEBEB"/>
<ellipse cx="32.4945" cy="42.9692" rx="1.6305" ry="1.82641" fill="#EBEBEB"/>
<ellipse cx="42.5952" cy="42.9692" rx="1.6305" ry="1.82641" fill="#EBEBEB"/>
<ellipse cx="52.6959" cy="42.9692" rx="1.6305" ry="1.82641" fill="#EBEBEB"/>
<ellipse cx="62.7966" cy="42.9692" rx="1.6305" ry="1.82641" fill="#EBEBEB"/>
<ellipse cx="72.8972" cy="42.9692" rx="1.6305" ry="1.82641" fill="#EBEBEB"/>
<ellipse cx="82.9981" cy="42.9692" rx="1.6305" ry="1.82641" fill="#EBEBEB"/>
<ellipse cx="93.0988" cy="42.9692" rx="1.6305" ry="1.82641" fill="#EBEBEB"/>
<ellipse cx="103.199" cy="42.9692" rx="1.6305" ry="1.82641" fill="#EBEBEB"/>
<ellipse cx="113.3" cy="42.9692" rx="1.6305" ry="1.82641" fill="#EBEBEB"/>
<ellipse cx="123.401" cy="42.9692" rx="1.6305" ry="1.82641" fill="#EBEBEB"/>
<ellipse cx="133.501" cy="42.9692" rx="1.6305" ry="1.82641" fill="#EBEBEB"/>
<ellipse cx="143.602" cy="42.9692" rx="1.6305" ry="1.82641" fill="#EBEBEB"/>
<ellipse cx="153.703" cy="42.9692" rx="1.6305" ry="1.82641" fill="#EBEBEB"/>
<ellipse cx="163.804" cy="42.9692" rx="1.6305" ry="1.82641" fill="#EBEBEB"/>
<ellipse cx="173.904" cy="42.9692" rx="1.6305" ry="1.82641" fill="#EBEBEB"/>
<ellipse cx="184.005" cy="42.9692" rx="1.6305" ry="1.82641" fill="#EBEBEB"/>
<ellipse cx="194.105" cy="42.9692" rx="1.6305" ry="1.82641" fill="#EBEBEB"/>
<ellipse cx="2.19252" cy="53.2549" rx="1.6305" ry="1.82641" fill="#EBEBEB"/>
<ellipse cx="12.2932" cy="53.2549" rx="1.6305" ry="1.82641" fill="#EBEBEB"/>
<ellipse cx="22.3939" cy="53.2549" rx="1.6305" ry="1.82641" fill="#EBEBEB"/>
<ellipse cx="32.4945" cy="53.2549" rx="1.6305" ry="1.82641" fill="#EBEBEB"/>
<ellipse cx="42.5952" cy="53.2549" rx="1.6305" ry="1.82641" fill="#EBEBEB"/>
<ellipse cx="52.6959" cy="53.2549" rx="1.6305" ry="1.82641" fill="#EBEBEB"/>
<ellipse cx="62.7966" cy="53.2549" rx="1.6305" ry="1.82641" fill="#EBEBEB"/>
<ellipse cx="72.8972" cy="53.2549" rx="1.6305" ry="1.82641" fill="#EBEBEB"/>
<ellipse cx="82.9981" cy="53.2549" rx="1.6305" ry="1.82641" fill="#EBEBEB"/>
<ellipse cx="93.0988" cy="53.2549" rx="1.6305" ry="1.82641" fill="#EBEBEB"/>
<ellipse cx="103.199" cy="53.2549" rx="1.6305" ry="1.82641" fill="#EBEBEB"/>
<ellipse cx="113.3" cy="53.2549" rx="1.6305" ry="1.82641" fill="#EBEBEB"/>
<ellipse cx="123.401" cy="53.2549" rx="1.6305" ry="1.82641" fill="#EBEBEB"/>
<ellipse cx="133.501" cy="53.2549" rx="1.6305" ry="1.82641" fill="#EBEBEB"/>
<ellipse cx="143.602" cy="53.2549" rx="1.6305" ry="1.82641" fill="#EBEBEB"/>
<ellipse cx="153.703" cy="53.2549" rx="1.6305" ry="1.82641" fill="#EBEBEB"/>
<ellipse cx="163.804" cy="53.2549" rx="1.6305" ry="1.82641" fill="#EBEBEB"/>
<ellipse cx="173.904" cy="53.2549" rx="1.6305" ry="1.82641" fill="#EBEBEB"/>
<ellipse cx="184.005" cy="53.2549" rx="1.6305" ry="1.82641" fill="#EBEBEB"/>
<ellipse cx="194.105" cy="53.2549" rx="1.6305" ry="1.82641" fill="#EBEBEB"/>
<ellipse cx="2.19252" cy="63.5408" rx="1.6305" ry="1.82641" fill="#EBEBEB"/>
<ellipse cx="12.2932" cy="63.5408" rx="1.6305" ry="1.82641" fill="#EBEBEB"/>
<ellipse cx="22.3939" cy="63.5408" rx="1.6305" ry="1.82641" fill="#EBEBEB"/>
<ellipse cx="32.4945" cy="63.5408" rx="1.6305" ry="1.82641" fill="#EBEBEB"/>
<ellipse cx="42.5952" cy="63.5408" rx="1.6305" ry="1.82641" fill="#EBEBEB"/>
<ellipse cx="52.6959" cy="63.5408" rx="1.6305" ry="1.82641" fill="#EBEBEB"/>
<ellipse cx="62.7966" cy="63.5408" rx="1.6305" ry="1.82641" fill="#EBEBEB"/>
<ellipse cx="72.8972" cy="63.5408" rx="1.6305" ry="1.82641" fill="#EBEBEB"/>
<ellipse cx="82.9981" cy="63.5408" rx="1.6305" ry="1.82641" fill="#EBEBEB"/>
<ellipse cx="93.0988" cy="63.5408" rx="1.6305" ry="1.82641" fill="#EBEBEB"/>
<ellipse cx="103.199" cy="63.5408" rx="1.6305" ry="1.82641" fill="#EBEBEB"/>
<ellipse cx="113.3" cy="63.5408" rx="1.6305" ry="1.82641" fill="#EBEBEB"/>
<ellipse cx="123.401" cy="63.5408" rx="1.6305" ry="1.82641" fill="#EBEBEB"/>
<ellipse cx="133.501" cy="63.5408" rx="1.6305" ry="1.82641" fill="#EBEBEB"/>
<ellipse cx="143.602" cy="63.5408" rx="1.6305" ry="1.82641" fill="#EBEBEB"/>
<ellipse cx="153.703" cy="63.5408" rx="1.6305" ry="1.82641" fill="#EBEBEB"/>
<ellipse cx="163.804" cy="63.5408" rx="1.6305" ry="1.82641" fill="#EBEBEB"/>
<ellipse cx="173.904" cy="63.5408" rx="1.6305" ry="1.82641" fill="#EBEBEB"/>
<ellipse cx="184.005" cy="63.5408" rx="1.6305" ry="1.82641" fill="#EBEBEB"/>
<ellipse cx="194.105" cy="63.5408" rx="1.6305" ry="1.82641" fill="#EBEBEB"/>
<ellipse cx="2.19252" cy="73.8264" rx="1.6305" ry="1.82641" fill="#EBEBEB"/>
<ellipse cx="12.2932" cy="73.8264" rx="1.6305" ry="1.82641" fill="#EBEBEB"/>
<ellipse cx="22.3939" cy="73.8264" rx="1.6305" ry="1.82641" fill="#EBEBEB"/>
<ellipse cx="32.4945" cy="73.8264" rx="1.6305" ry="1.82641" fill="#EBEBEB"/>
<ellipse cx="42.5952" cy="73.8264" rx="1.6305" ry="1.82641" fill="#EBEBEB"/>
<ellipse cx="52.6959" cy="73.8264" rx="1.6305" ry="1.82641" fill="#EBEBEB"/>
<ellipse cx="62.7966" cy="73.8264" rx="1.6305" ry="1.82641" fill="#EBEBEB"/>
<ellipse cx="72.8972" cy="73.8264" rx="1.6305" ry="1.82641" fill="#EBEBEB"/>
<ellipse cx="82.9981" cy="73.8264" rx="1.6305" ry="1.82641" fill="#EBEBEB"/>
<ellipse cx="93.0988" cy="73.8264" rx="1.6305" ry="1.82641" fill="#EBEBEB"/>
<ellipse cx="103.199" cy="73.8264" rx="1.6305" ry="1.82641" fill="#EBEBEB"/>
<ellipse cx="113.3" cy="73.8264" rx="1.6305" ry="1.82641" fill="#EBEBEB"/>
<ellipse cx="123.401" cy="73.8264" rx="1.6305" ry="1.82641" fill="#EBEBEB"/>
<ellipse cx="133.501" cy="73.8264" rx="1.6305" ry="1.82641" fill="#EBEBEB"/>
<ellipse cx="143.602" cy="73.8264" rx="1.6305" ry="1.82641" fill="#EBEBEB"/>
<ellipse cx="153.703" cy="73.8264" rx="1.6305" ry="1.82641" fill="#EBEBEB"/>
<ellipse cx="163.804" cy="73.8264" rx="1.6305" ry="1.82641" fill="#EBEBEB"/>
<ellipse cx="173.904" cy="73.8264" rx="1.6305" ry="1.82641" fill="#EBEBEB"/>
<ellipse cx="184.005" cy="73.8264" rx="1.6305" ry="1.82641" fill="#EBEBEB"/>
<ellipse cx="194.105" cy="73.8264" rx="1.6305" ry="1.82641" fill="#EBEBEB"/>
<ellipse cx="2.19252" cy="84.1121" rx="1.6305" ry="1.82641" fill="#EBEBEB"/>
<ellipse cx="12.2932" cy="84.1121" rx="1.6305" ry="1.82641" fill="#EBEBEB"/>
<ellipse cx="22.3939" cy="84.1121" rx="1.6305" ry="1.82641" fill="#EBEBEB"/>
<ellipse cx="32.4945" cy="84.1121" rx="1.6305" ry="1.82641" fill="#EBEBEB"/>
<ellipse cx="42.5952" cy="84.1121" rx="1.6305" ry="1.82641" fill="#EBEBEB"/>
<ellipse cx="52.6959" cy="84.1121" rx="1.6305" ry="1.82641" fill="#EBEBEB"/>
<ellipse cx="62.7966" cy="84.1121" rx="1.6305" ry="1.82641" fill="#EBEBEB"/>
<ellipse cx="72.8972" cy="84.1121" rx="1.6305" ry="1.82641" fill="#EBEBEB"/>
<ellipse cx="82.9981" cy="84.1121" rx="1.6305" ry="1.82641" fill="#EBEBEB"/>
<ellipse cx="93.0988" cy="84.1121" rx="1.6305" ry="1.82641" fill="#EBEBEB"/>
<ellipse cx="103.199" cy="84.1121" rx="1.6305" ry="1.82641" fill="#EBEBEB"/>
<ellipse cx="113.3" cy="84.1121" rx="1.6305" ry="1.82641" fill="#EBEBEB"/>
<ellipse cx="123.401" cy="84.1121" rx="1.6305" ry="1.82641" fill="#EBEBEB"/>
<ellipse cx="133.501" cy="84.1121" rx="1.6305" ry="1.82641" fill="#EBEBEB"/>
<ellipse cx="143.602" cy="84.1121" rx="1.6305" ry="1.82641" fill="#EBEBEB"/>
<ellipse cx="153.703" cy="84.1121" rx="1.6305" ry="1.82641" fill="#EBEBEB"/>
<ellipse cx="163.804" cy="84.1121" rx="1.6305" ry="1.82641" fill="#EBEBEB"/>
<ellipse cx="173.904" cy="84.1121" rx="1.6305" ry="1.82641" fill="#EBEBEB"/>
<ellipse cx="184.005" cy="84.1121" rx="1.6305" ry="1.82641" fill="#EBEBEB"/>
<ellipse cx="194.105" cy="84.1121" rx="1.6305" ry="1.82641" fill="#EBEBEB"/>
<ellipse cx="2.19252" cy="94.3979" rx="1.6305" ry="1.82641" fill="#EBEBEB"/>
<ellipse cx="12.2932" cy="94.3979" rx="1.6305" ry="1.82641" fill="#EBEBEB"/>
<ellipse cx="22.3939" cy="94.3979" rx="1.6305" ry="1.82641" fill="#EBEBEB"/>
<ellipse cx="32.4945" cy="94.3979" rx="1.6305" ry="1.82641" fill="#EBEBEB"/>
<ellipse cx="42.5952" cy="94.3979" rx="1.6305" ry="1.82641" fill="#EBEBEB"/>
<ellipse cx="52.6959" cy="94.3979" rx="1.6305" ry="1.82641" fill="#EBEBEB"/>
<ellipse cx="62.7966" cy="94.3979" rx="1.6305" ry="1.82641" fill="#EBEBEB"/>
<ellipse cx="72.8972" cy="94.3979" rx="1.6305" ry="1.82641" fill="#EBEBEB"/>
<ellipse cx="82.9981" cy="94.3979" rx="1.6305" ry="1.82641" fill="#EBEBEB"/>
<ellipse cx="93.0988" cy="94.3979" rx="1.6305" ry="1.82641" fill="#EBEBEB"/>
<ellipse cx="103.199" cy="94.3979" rx="1.6305" ry="1.82641" fill="#EBEBEB"/>
<ellipse cx="113.3" cy="94.3979" rx="1.6305" ry="1.82641" fill="#EBEBEB"/>
<ellipse cx="123.401" cy="94.3979" rx="1.6305" ry="1.82641" fill="#EBEBEB"/>
<ellipse cx="133.501" cy="94.3979" rx="1.6305" ry="1.82641" fill="#EBEBEB"/>
<ellipse cx="143.602" cy="94.3979" rx="1.6305" ry="1.82641" fill="#EBEBEB"/>
<ellipse cx="153.703" cy="94.3979" rx="1.6305" ry="1.82641" fill="#EBEBEB"/>
<ellipse cx="163.804" cy="94.3979" rx="1.6305" ry="1.82641" fill="#EBEBEB"/>
<ellipse cx="173.904" cy="94.3979" rx="1.6305" ry="1.82641" fill="#EBEBEB"/>
<ellipse cx="184.005" cy="94.3979" rx="1.6305" ry="1.82641" fill="#EBEBEB"/>
<ellipse cx="194.105" cy="94.3979" rx="1.6305" ry="1.82641" fill="#EBEBEB"/>
<ellipse cx="2.19252" cy="104.684" rx="1.6305" ry="1.82641" fill="#EBEBEB"/>
<ellipse cx="12.2932" cy="104.684" rx="1.6305" ry="1.82641" fill="#EBEBEB"/>
<ellipse cx="22.3939" cy="104.684" rx="1.6305" ry="1.82641" fill="#EBEBEB"/>
<ellipse cx="32.4945" cy="104.684" rx="1.6305" ry="1.82641" fill="#EBEBEB"/>
<ellipse cx="42.5952" cy="104.684" rx="1.6305" ry="1.82641" fill="#EBEBEB"/>
<ellipse cx="52.6959" cy="104.684" rx="1.6305" ry="1.82641" fill="#EBEBEB"/>
<ellipse cx="62.7966" cy="104.684" rx="1.6305" ry="1.82641" fill="#EBEBEB"/>
<ellipse cx="72.8972" cy="104.684" rx="1.6305" ry="1.82641" fill="#EBEBEB"/>
<ellipse cx="82.9981" cy="104.684" rx="1.6305" ry="1.82641" fill="#EBEBEB"/>
<ellipse cx="93.0988" cy="104.684" rx="1.6305" ry="1.82641" fill="#EBEBEB"/>
<ellipse cx="103.199" cy="104.684" rx="1.6305" ry="1.82641" fill="#EBEBEB"/>
<ellipse cx="113.3" cy="104.684" rx="1.6305" ry="1.82641" fill="#EBEBEB"/>
<ellipse cx="123.401" cy="104.684" rx="1.6305" ry="1.82641" fill="#EBEBEB"/>
<ellipse cx="133.501" cy="104.684" rx="1.6305" ry="1.82641" fill="#EBEBEB"/>
<ellipse cx="143.602" cy="104.684" rx="1.6305" ry="1.82641" fill="#EBEBEB"/>
<ellipse cx="153.703" cy="104.684" rx="1.6305" ry="1.82641" fill="#EBEBEB"/>
<ellipse cx="163.804" cy="104.684" rx="1.6305" ry="1.82641" fill="#EBEBEB"/>
<ellipse cx="173.904" cy="104.684" rx="1.6305" ry="1.82641" fill="#EBEBEB"/>
<ellipse cx="184.005" cy="104.684" rx="1.6305" ry="1.82641" fill="#EBEBEB"/>
<ellipse cx="194.105" cy="104.684" rx="1.6305" ry="1.82641" fill="#EBEBEB"/>
<ellipse cx="2.19252" cy="114.969" rx="1.6305" ry="1.82641" fill="#EBEBEB"/>
<ellipse cx="12.2932" cy="114.969" rx="1.6305" ry="1.82641" fill="#EBEBEB"/>
<ellipse cx="22.3939" cy="114.969" rx="1.6305" ry="1.82641" fill="#EBEBEB"/>
<ellipse cx="32.4945" cy="114.969" rx="1.6305" ry="1.82641" fill="#EBEBEB"/>
<ellipse cx="42.5952" cy="114.969" rx="1.6305" ry="1.82641" fill="#EBEBEB"/>
<ellipse cx="52.6959" cy="114.969" rx="1.6305" ry="1.82641" fill="#EBEBEB"/>
<ellipse cx="62.7966" cy="114.969" rx="1.6305" ry="1.82641" fill="#EBEBEB"/>
<ellipse cx="72.8972" cy="114.969" rx="1.6305" ry="1.82641" fill="#EBEBEB"/>
<ellipse cx="82.9981" cy="114.969" rx="1.6305" ry="1.82641" fill="#EBEBEB"/>
<ellipse cx="93.0988" cy="114.969" rx="1.6305" ry="1.82641" fill="#EBEBEB"/>
<ellipse cx="103.199" cy="114.969" rx="1.6305" ry="1.82641" fill="#EBEBEB"/>
<ellipse cx="113.3" cy="114.969" rx="1.6305" ry="1.82641" fill="#EBEBEB"/>
<ellipse cx="123.401" cy="114.969" rx="1.6305" ry="1.82641" fill="#EBEBEB"/>
<ellipse cx="133.501" cy="114.969" rx="1.6305" ry="1.82641" fill="#EBEBEB"/>
<ellipse cx="143.602" cy="114.969" rx="1.6305" ry="1.82641" fill="#EBEBEB"/>
<ellipse cx="153.703" cy="114.969" rx="1.6305" ry="1.82641" fill="#EBEBEB"/>
<ellipse cx="163.804" cy="114.969" rx="1.6305" ry="1.82641" fill="#EBEBEB"/>
<ellipse cx="173.904" cy="114.969" rx="1.6305" ry="1.82641" fill="#EBEBEB"/>
<ellipse cx="184.005" cy="114.969" rx="1.6305" ry="1.82641" fill="#EBEBEB"/>
<ellipse cx="194.105" cy="114.969" rx="1.6305" ry="1.82641" fill="#EBEBEB"/>
<ellipse cx="2.19252" cy="125.255" rx="1.6305" ry="1.82641" fill="#EBEBEB"/>
<ellipse cx="12.2932" cy="125.255" rx="1.6305" ry="1.82641" fill="#EBEBEB"/>
<ellipse cx="22.3939" cy="125.255" rx="1.6305" ry="1.82641" fill="#EBEBEB"/>
<ellipse cx="32.4945" cy="125.255" rx="1.6305" ry="1.82641" fill="#EBEBEB"/>
<ellipse cx="42.5952" cy="125.255" rx="1.6305" ry="1.82641" fill="#EBEBEB"/>
<ellipse cx="52.6959" cy="125.255" rx="1.6305" ry="1.82641" fill="#EBEBEB"/>
<ellipse cx="62.7966" cy="125.255" rx="1.6305" ry="1.82641" fill="#EBEBEB"/>
<ellipse cx="72.8972" cy="125.255" rx="1.6305" ry="1.82641" fill="#EBEBEB"/>
<ellipse cx="82.9981" cy="125.255" rx="1.6305" ry="1.82641" fill="#EBEBEB"/>
<ellipse cx="93.0988" cy="125.255" rx="1.6305" ry="1.82641" fill="#EBEBEB"/>
<ellipse cx="103.199" cy="125.255" rx="1.6305" ry="1.82641" fill="#EBEBEB"/>
<ellipse cx="113.3" cy="125.255" rx="1.6305" ry="1.82641" fill="#EBEBEB"/>
<ellipse cx="123.401" cy="125.255" rx="1.6305" ry="1.82641" fill="#EBEBEB"/>
<ellipse cx="133.501" cy="125.255" rx="1.6305" ry="1.82641" fill="#EBEBEB"/>
<ellipse cx="143.602" cy="125.255" rx="1.6305" ry="1.82641" fill="#EBEBEB"/>
<ellipse cx="153.703" cy="125.255" rx="1.6305" ry="1.82641" fill="#EBEBEB"/>
<ellipse cx="163.804" cy="125.255" rx="1.6305" ry="1.82641" fill="#EBEBEB"/>
<ellipse cx="173.904" cy="125.255" rx="1.6305" ry="1.82641" fill="#EBEBEB"/>
<ellipse cx="184.005" cy="125.255" rx="1.6305" ry="1.82641" fill="#EBEBEB"/>
<ellipse cx="194.105" cy="125.255" rx="1.6305" ry="1.82641" fill="#EBEBEB"/>
<ellipse cx="2.19252" cy="135.541" rx="1.6305" ry="1.82641" fill="#EBEBEB"/>
<ellipse cx="12.2932" cy="135.541" rx="1.6305" ry="1.82641" fill="#EBEBEB"/>
<ellipse cx="22.3939" cy="135.541" rx="1.6305" ry="1.82641" fill="#EBEBEB"/>
<ellipse cx="32.4945" cy="135.541" rx="1.6305" ry="1.82641" fill="#EBEBEB"/>
<ellipse cx="42.5952" cy="135.541" rx="1.6305" ry="1.82641" fill="#EBEBEB"/>
<ellipse cx="52.6959" cy="135.541" rx="1.6305" ry="1.82641" fill="#EBEBEB"/>
<ellipse cx="62.7966" cy="135.541" rx="1.6305" ry="1.82641" fill="#EBEBEB"/>
<ellipse cx="72.8972" cy="135.541" rx="1.6305" ry="1.82641" fill="#EBEBEB"/>
<ellipse cx="82.9981" cy="135.541" rx="1.6305" ry="1.82641" fill="#EBEBEB"/>
<ellipse cx="93.0988" cy="135.541" rx="1.6305" ry="1.82641" fill="#EBEBEB"/>
<ellipse cx="103.199" cy="135.541" rx="1.6305" ry="1.82641" fill="#EBEBEB"/>
<ellipse cx="113.3" cy="135.541" rx="1.6305" ry="1.82641" fill="#EBEBEB"/>
<ellipse cx="123.401" cy="135.541" rx="1.6305" ry="1.82641" fill="#EBEBEB"/>
<ellipse cx="133.501" cy="135.541" rx="1.6305" ry="1.82641" fill="#EBEBEB"/>
<ellipse cx="143.602" cy="135.541" rx="1.6305" ry="1.82641" fill="#EBEBEB"/>
<ellipse cx="153.703" cy="135.541" rx="1.6305" ry="1.82641" fill="#EBEBEB"/>
<ellipse cx="163.804" cy="135.541" rx="1.6305" ry="1.82641" fill="#EBEBEB"/>
<ellipse cx="173.904" cy="135.541" rx="1.6305" ry="1.82641" fill="#EBEBEB"/>
<ellipse cx="184.005" cy="135.541" rx="1.6305" ry="1.82641" fill="#EBEBEB"/>
<ellipse cx="194.105" cy="135.541" rx="1.6305" ry="1.82641" fill="#EBEBEB"/>
<ellipse cx="2.19252" cy="145.826" rx="1.6305" ry="1.82641" fill="#EBEBEB"/>
<ellipse cx="12.2932" cy="145.826" rx="1.6305" ry="1.82641" fill="#EBEBEB"/>
<ellipse cx="22.3939" cy="145.826" rx="1.6305" ry="1.82641" fill="#EBEBEB"/>
<ellipse cx="32.4945" cy="145.826" rx="1.6305" ry="1.82641" fill="#EBEBEB"/>
<ellipse cx="42.5952" cy="145.826" rx="1.6305" ry="1.82641" fill="#EBEBEB"/>
<ellipse cx="52.6959" cy="145.826" rx="1.6305" ry="1.82641" fill="#EBEBEB"/>
<ellipse cx="62.7966" cy="145.826" rx="1.6305" ry="1.82641" fill="#EBEBEB"/>
<ellipse cx="72.8972" cy="145.826" rx="1.6305" ry="1.82641" fill="#EBEBEB"/>
<ellipse cx="82.9981" cy="145.826" rx="1.6305" ry="1.82641" fill="#EBEBEB"/>
<ellipse cx="93.0988" cy="145.826" rx="1.6305" ry="1.82641" fill="#EBEBEB"/>
<ellipse cx="103.199" cy="145.826" rx="1.6305" ry="1.82641" fill="#EBEBEB"/>
<ellipse cx="113.3" cy="145.826" rx="1.6305" ry="1.82641" fill="#EBEBEB"/>
<ellipse cx="123.401" cy="145.826" rx="1.6305" ry="1.82641" fill="#EBEBEB"/>
<ellipse cx="133.501" cy="145.826" rx="1.6305" ry="1.82641" fill="#EBEBEB"/>
<ellipse cx="143.602" cy="145.826" rx="1.6305" ry="1.82641" fill="#EBEBEB"/>
<ellipse cx="153.703" cy="145.826" rx="1.6305" ry="1.82641" fill="#EBEBEB"/>
<ellipse cx="163.804" cy="145.826" rx="1.6305" ry="1.82641" fill="#EBEBEB"/>
<ellipse cx="173.904" cy="145.826" rx="1.6305" ry="1.82641" fill="#EBEBEB"/>
<ellipse cx="184.005" cy="145.826" rx="1.6305" ry="1.82641" fill="#EBEBEB"/>
<ellipse cx="194.105" cy="145.826" rx="1.6305" ry="1.82641" fill="#EBEBEB"/>
<ellipse cx="2.19252" cy="156.112" rx="1.6305" ry="1.82641" fill="#EBEBEB"/>
<ellipse cx="12.2932" cy="156.112" rx="1.6305" ry="1.82641" fill="#EBEBEB"/>
<ellipse cx="22.3939" cy="156.112" rx="1.6305" ry="1.82641" fill="#EBEBEB"/>
<ellipse cx="32.4945" cy="156.112" rx="1.6305" ry="1.82641" fill="#EBEBEB"/>
<ellipse cx="42.5952" cy="156.112" rx="1.6305" ry="1.82641" fill="#EBEBEB"/>
<ellipse cx="52.6959" cy="156.112" rx="1.6305" ry="1.82641" fill="#EBEBEB"/>
<ellipse cx="62.7966" cy="156.112" rx="1.6305" ry="1.82641" fill="#EBEBEB"/>
<ellipse cx="72.8972" cy="156.112" rx="1.6305" ry="1.82641" fill="#EBEBEB"/>
<ellipse cx="82.9981" cy="156.112" rx="1.6305" ry="1.82641" fill="#EBEBEB"/>
<ellipse cx="93.0988" cy="156.112" rx="1.6305" ry="1.82641" fill="#EBEBEB"/>
<ellipse cx="103.199" cy="156.112" rx="1.6305" ry="1.82641" fill="#EBEBEB"/>
<ellipse cx="113.3" cy="156.112" rx="1.6305" ry="1.82641" fill="#EBEBEB"/>
<ellipse cx="123.401" cy="156.112" rx="1.6305" ry="1.82641" fill="#EBEBEB"/>
<ellipse cx="133.501" cy="156.112" rx="1.6305" ry="1.82641" fill="#EBEBEB"/>
<ellipse cx="143.602" cy="156.112" rx="1.6305" ry="1.82641" fill="#EBEBEB"/>
<ellipse cx="153.703" cy="156.112" rx="1.6305" ry="1.82641" fill="#EBEBEB"/>
<ellipse cx="163.804" cy="156.112" rx="1.6305" ry="1.82641" fill="#EBEBEB"/>
<ellipse cx="173.904" cy="156.112" rx="1.6305" ry="1.82641" fill="#EBEBEB"/>
<ellipse cx="184.005" cy="156.112" rx="1.6305" ry="1.82641" fill="#EBEBEB"/>
<ellipse cx="194.105" cy="156.112" rx="1.6305" ry="1.82641" fill="#EBEBEB"/>
</svg>
